<?xml version="1.0" encoding="UTF-8"?>
<!DOCTYPE svg PUBLIC "-//W3C//DTD SVG 1.1//EN" "http://www.w3.org/Graphics/SVG/1.1/DTD/svg11.dtd">
<!-- Creator: CorelDRAW X8 -->
<svg xmlns="http://www.w3.org/2000/svg" xml:space="preserve" width="125.885mm" height="24.754mm" version="1.1" style="shape-rendering:geometricPrecision; text-rendering:geometricPrecision; image-rendering:optimizeQuality; fill-rule:evenodd; clip-rule:evenodd"
viewBox="0 0 12589 2475"
 xmlns:xlink="http://www.w3.org/1999/xlink">
 <defs>
  <style type="text/css">
   <![CDATA[
    .fil0 {fill:#373435}
    .fil4 {fill:#292F33}
    .fil5 {fill:#64471B}
    .fil3 {fill:#FECB4D}
    .fil2 {fill:#FFCB4D}
    .fil6 {fill:#FFFEFD}
    .fil1 {fill:#FFCC4D;fill-rule:nonzero}
   ]]>
  </style>
 </defs>
 <g id="Camada_x0020_2">
  <metadata id="CorelCorpID_0Corel-Layer"/>
  <g id="_1456922144544">
   <g>
    <path class="fil0" d="M1387 1308c1,94 -1,189 -4,282 -5,126 -12,251 -21,376l-2 34 -369 0 0 -7c-41,19 -84,30 -129,33l-2 0 -2 0c-92,-5 -173,-40 -241,-106 -73,-71 -125,-165 -163,-262 -60,-155 -83,-323 -83,-491 0,-302 53,-647 281,-856 77,-73 168,-112 272,-112 155,0 275,70 354,211 79,141 98,346 101,506l0 35 -360 24 0 -39c0,-29 -2,-59 -6,-87l0 -2 0 -1c-3,-72 -14,-145 -25,-216 -7,-16 -25,-53 -39,-53 -65,0 -104,67 -127,122 -56,132 -70,297 -70,441 0,99 8,199 24,297 9,48 39,200 99,212 32,-6 62,-33 83,-57 21,-25 44,-58 45,-93 -1,-5 -2,-14 -4,-19 -38,1 -73,9 -107,25l-45 21 -33 -443 36 -2c65,-2 131,-4 196,-4 77,0 184,7 251,50l1 1 1 1c58,44 88,105 88,179zm106 571c-81,-94 -86,-321 -86,-440 0,-14 1,-29 2,-43 1,-25 4,-50 6,-75 7,-84 16,-168 24,-252 19,-180 31,-363 32,-544 1,-85 -1,-176 -15,-259l-7 -42 946 -19 -12 390 -33 1c-113,2 -226,5 -338,12 -37,2 -73,4 -109,8 -13,1 -26,3 -39,5l-13 286c78,-1 156,-2 234,-5 66,-3 133,-6 199,-11l37 -3 0 407 -490 11 -3 79c-2,57 0,121 17,176l0 0 0 0c10,36 35,45 68,45 152,-1 304,-16 454,-38l42 -6 -25 413 -24 7c-64,18 -130,28 -196,34 -83,8 -167,11 -251,10 -132,-1 -339,-17 -420,-147zm1037 0c-81,-94 -86,-321 -86,-440 0,-14 1,-29 2,-43 2,-25 4,-50 7,-75 7,-84 16,-168 24,-252 18,-180 30,-363 32,-544 1,-85 -1,-176 -15,-259l-8 -42 947 -19 -12 390 -33 1c-113,2 -226,5 -339,12 -36,2 -72,4 -108,8 -13,1 -26,3 -40,5l-13 286c79,-1 157,-2 235,-5 66,-3 133,-6 199,-11l37 -3 0 407 -490 11 -3 79c-2,57 0,121 17,176l0 0 0 0c10,36 35,45 68,45 151,-1 304,-16 453,-38l42 -6 -24 413 -24 7c-64,18 -131,28 -196,34 -84,8 -168,11 -251,10 -132,-1 -339,-17 -421,-147z"/>
   </g>
   <path class="fil1" d="M1352 1309c3,155 -6,374 -24,655l-302 0 0 -32c-50,34 -106,53 -167,58 -85,-5 -158,-37 -218,-97 -61,-58 -113,-141 -155,-248 -54,-141 -81,-301 -81,-478 0,-388 90,-664 270,-828 72,-69 155,-103 249,-103 145,0 253,64 325,193 59,105 91,268 95,488l-290 19c0,-25 -2,-56 -6,-92 -3,-57 -12,-132 -26,-225 -22,-53 -46,-79 -73,-79 -65,0 -118,48 -158,144 -49,114 -73,266 -73,456 0,104 8,205 24,304 28,155 73,236 134,242 35,-5 71,-28 107,-69 37,-41 55,-81 55,-120 -4,-35 -16,-53 -37,-53 -43,0 -84,9 -123,27l-27 -353c73,-3 138,-4 195,-4 109,0 187,15 233,45 49,37 73,87 73,150z"/>
   <path id="1" class="fil1" d="M2371 1604l-20 343c-108,30 -254,44 -438,43 -209,-2 -340,-46 -393,-133 -53,-59 -79,-198 -79,-418 0,-31 11,-153 33,-366 20,-201 31,-384 32,-548 1,-107 -4,-195 -16,-265l869 -17 -10 316c-280,6 -453,16 -519,30l-16 356c206,-3 363,-9 472,-17l0 332 -488 10 -4 114c-3,77 3,139 18,188 14,47 47,71 101,71 140,-2 292,-14 458,-39z"/>
   <path id="2" class="fil1" d="M3409 1604l-20 343c-108,30 -254,44 -438,43 -209,-2 -340,-46 -393,-133 -53,-59 -79,-198 -79,-418 0,-31 11,-153 32,-366 21,-201 32,-384 33,-548 1,-107 -4,-195 -16,-265l869 -17 -10 316c-280,6 -453,16 -519,30l-16 356c205,-3 363,-9 472,-17l0 332 -488 10 -5 114c-2,77 4,139 19,188 13,47 47,71 101,71 140,-2 292,-14 458,-39z"/>
   <g>
    <path class="fil0" d="M3928 1752l-22 601 -455 0 4 -40c13,-129 19,-261 23,-391l56 -1784 457 22 -14 361c97,-126 197,-249 300,-369l22 -26 347 300 -28 29c-191,199 -372,410 -548,623 101,175 204,349 311,520 89,143 181,284 278,421l20 28 -373 324 -22 -34c-60,-94 -119,-190 -177,-286 -61,-99 -120,-199 -179,-299z"/>
   </g>
   <path class="fil1" d="M4631 2041l-318 276c-98,-153 -236,-381 -415,-685l-25 685 -383 0c10,-102 17,-233 22,-394l55 -1747 388 19 -17 436c114,-152 236,-304 365,-455l291 253c-171,178 -360,394 -567,646 232,402 433,725 604,966z"/>
   <g>
    <path class="fil0" d="M5737 1454l-9 282c-3,100 -4,201 -4,301l0 39 -395 -22 1 -36c14,-350 26,-700 36,-1050 6,-246 12,-493 13,-739l0 -34 32 -3c91,-5 183,-11 274,-11 179,0 386,34 516,178 110,123 156,276 156,444 0,173 -42,335 -151,466 -113,136 -303,176 -469,185zm64 -379c32,-4 62,-15 88,-36 63,-53 75,-157 75,-236 0,-62 -9,-139 -51,-186 -35,-38 -93,-50 -144,-53l-19 511c17,0 34,0 51,0z"/>
   </g>
   <path class="fil1" d="M6323 803c0,179 -48,327 -144,442 -89,109 -248,167 -475,174l-11 316c-3,84 -4,185 -4,302l-324 -18c31,-803 47,-1400 48,-1790 115,-7 206,-11 272,-11 226,0 389,56 490,167 99,111 148,251 148,418zm-325 0c0,-96 -20,-167 -60,-211 -40,-43 -104,-65 -194,-65l-9 0 -21 583c21,1 51,2 89,2 130,-17 195,-119 195,-309z"/>
   <g>
    <path class="fil0" d="M9167 1136c-31,38 -69,67 -112,89l81 213c36,90 71,181 106,272 26,69 55,139 89,204l19 37 -392 157 -12 -36c-48,-149 -97,-297 -149,-444 -28,-77 -56,-155 -86,-231l-22 701 -407 -20 17 -332c24,-470 34,-940 34,-1410l0 -30 28 -6c107,-21 221,-26 330,-26 159,0 359,25 476,153 93,102 136,228 136,370 0,131 -50,244 -136,339zm928 -441l-6 543c-3,276 -9,552 -15,827l-1 38 -399 -19 0 -35c3,-192 6,-384 9,-576l12 -781 -332 0 28 -419 36 4c119,12 239,17 358,17l604 0 0 424 -38 -5c-85,-10 -171,-16 -256,-18zm-1202 102c-2,-36 -9,-78 -31,-106 -24,-25 -91,-29 -127,-29l-8 288c33,-6 69,-15 95,-31l1 0 0 -1c47,-25 67,-67 70,-121z"/>
   </g>
   <path class="fil1" d="M9300 1932l-321 128c-107,-333 -200,-593 -277,-782 -6,0 -13,0 -22,0l-25 782 -336 -17 15 -295c22,-450 33,-920 33,-1411 87,-18 194,-26 324,-26 213,0 364,47 451,141 84,95 127,209 127,345 0,115 -43,221 -127,314 -34,41 -78,72 -131,95l93 246c35,88 70,179 105,272 36,90 66,159 91,208zm-372 -1135c-3,-57 -16,-101 -40,-131 -26,-27 -78,-40 -159,-40l-27 0 -11 366c65,-7 114,-21 148,-41 55,-30 85,-81 89,-154z"/>
   <path id="1" class="fil1" d="M10354 677c-94,-11 -192,-18 -294,-19l-6 580c-2,158 -6,434 -15,826l-330 -15c1,-120 4,-312 9,-575l12 -819 -330 0 23 -342c108,11 228,17 362,17l569 0 0 347z"/>
   <g>
    <path class="fil0" d="M12409 1914l-31 431 -26 6c-162,31 -329,53 -493,50 -147,-2 -346,-23 -458,-135 -88,-88 -128,-198 -128,-325 0,-154 4,-308 12,-461l65 -1206 434 12 -5 40c-17,133 -28,266 -32,400l-31 928 0 1c-2,43 -4,86 -6,129 -2,32 -3,63 -3,94 0,24 4,55 24,71l0 0 1 1c24,20 98,22 127,22 170,-1 339,-19 506,-50l44 -8z"/>
   </g>
   <path class="fil1" d="M12371 1959l-26 356c-180,35 -342,51 -486,50 -210,-4 -355,-46 -434,-126 -78,-77 -117,-176 -117,-298 0,-154 4,-307 12,-459l63 -1171 362 10c-17,134 -28,268 -33,404l-30 928c-2,30 -4,73 -7,130 -2,45 -2,77 -2,95 0,47 12,81 37,100 23,20 73,31 149,31 170,-2 341,-19 512,-50z"/>
   <g>
    <path class="fil0" d="M6490 651c2,-4 5,-9 8,-14 5,-9 11,-18 16,-27 69,-109 141,-192 241,-270 155,-120 344,-186 536,-193l0 0 67 0 1 0c169,6 336,59 478,158l0 1 95 73 0 0c66,54 176,185 219,272 31,5 61,21 71,54 5,17 6,39 4,58 -2,12 -4,23 -11,34 0,0 0,0 0,0 1,3 2,7 3,9 4,10 7,19 10,29 28,89 45,181 49,275l0 1 0 97 0 1c-9,196 -72,384 -181,543 -20,30 -43,58 -66,87 -22,27 -49,55 -76,77l-39 35 -1 1c-100,83 -215,149 -340,182 -77,21 -157,33 -237,35l-1 0 -41 0 -1 0c-193,-5 -378,-69 -534,-191 -15,-11 -29,-22 -43,-34 -12,-10 -24,-22 -36,-32 -71,-58 -153,-178 -198,-260 -18,-34 -32,-69 -47,-104 -30,-70 -55,-165 -64,-242 -5,-33 -7,-66 -9,-99l0 -1 0 -95 0 -1c4,-76 15,-150 34,-224 4,-19 10,-38 16,-56 3,-11 8,-25 13,-38 -5,-10 -8,-20 -9,-35 -1,-17 -1,-42 5,-58 10,-29 39,-43 68,-48z"/>
   </g>
   <g>
    <path class="fil2" d="M7525 1740c0,54 -16,88 -47,110 -32,22 -93,18 -136,16l-44 0c-43,2 -104,6 -136,-16 -30,-22 -47,-56 -47,-110 -68,-24 -137,-79 -182,-123 -19,-19 -98,-102 -100,-132 -1,-26 21,-36 40,-26 13,7 31,22 46,31 43,27 105,58 151,77 162,65 341,67 503,-1 38,-16 65,-30 102,-48 42,-22 78,-52 92,-59 21,-11 43,2 39,29 -1,14 -21,39 -29,50 -55,77 -162,169 -252,202zm718 -628l0 95c-9,187 -69,369 -175,524 -21,30 -42,56 -64,84 -20,25 -48,53 -72,73l-39 35c-95,78 -206,143 -327,176 -77,20 -154,31 -230,33l-41 0c-184,-4 -362,-64 -515,-183 -15,-12 -26,-20 -41,-33 -13,-12 -23,-21 -37,-33 -65,-53 -147,-174 -189,-250 -17,-32 -30,-64 -46,-100 -25,-61 -52,-157 -61,-232 -4,-32 -7,-64 -8,-95l0 -94c3,-72 14,-143 32,-217 6,-23 27,-92 36,-109 89,38 85,49 94,124 28,226 73,336 306,352 136,9 261,-31 318,-115 90,-130 29,-303 136,-305 113,-2 47,161 138,303 54,83 183,125 316,117 62,-4 124,-18 173,-44 159,-85 114,-342 160,-390 14,-14 47,-35 71,-39 1,12 13,45 17,57 28,88 43,177 48,266z"/>
    <path class="fil3" d="M6512 686l-8 19c77,0 92,-31 195,-59 149,-40 334,-39 467,46 55,35 69,34 154,34 138,0 109,-10 195,-55 147,-76 370,-60 520,6 40,18 49,28 101,28l-8 -19c-31,-77 -149,-222 -217,-278l-94 -72c-136,-96 -296,-146 -459,-152l-66 0c-184,6 -366,69 -516,186 -99,76 -166,155 -233,260 -6,10 -11,17 -15,26 -5,9 -12,20 -16,30z"/>
    <path class="fil4" d="M7710 730c67,-4 137,2 200,18 74,19 86,23 69,154 -8,61 -19,142 -45,188 -41,71 -241,91 -348,31 -48,-27 -69,-78 -81,-151 -32,-201 26,-229 205,-240zm-863 1c63,-5 139,-1 200,15 67,18 103,47 101,130 -1,68 -12,145 -40,195 -59,105 -242,98 -340,61 -63,-23 -73,-67 -89,-142 -9,-42 -31,-173 -12,-210 17,-34 136,-46 180,-49zm-335 -45c-22,1 -51,8 -57,26 -3,8 -4,28 -3,42 1,18 4,23 14,32 89,38 85,49 94,124 28,226 73,336 306,352 136,9 261,-31 318,-115 90,-130 29,-303 136,-305 113,-2 47,161 138,303 54,83 183,125 316,117 62,-4 124,-18 173,-44 159,-85 114,-342 160,-390 14,-14 47,-35 71,-39 8,-14 10,-10 13,-32 2,-14 1,-31 -2,-41 -7,-21 -35,-30 -61,-30l8 19c-52,0 -61,-10 -101,-28 -150,-66 -373,-82 -520,-6 -86,45 -57,55 -195,55 -85,0 -99,1 -154,-34 -133,-85 -318,-86 -467,-46 -103,28 -118,59 -195,59l8 -19z"/>
    <path class="fil3" d="M6977 777c71,-16 114,75 119,145 6,83 -28,170 -87,186 -141,37 -179,-299 -32,-331zm-130 -46c-44,3 -163,15 -180,49 -19,37 3,168 12,210 16,75 26,119 89,142 98,37 281,44 340,-61 28,-50 39,-127 40,-195 2,-83 -34,-112 -101,-130 -61,-16 -137,-20 -200,-15z"/>
    <path class="fil3" d="M7642 777c136,-30 166,298 31,331 -76,19 -120,-75 -125,-148 -6,-87 29,-169 94,-183zm68 -47c-179,11 -237,39 -205,240 12,73 33,124 81,151 107,60 307,40 348,-31 26,-46 37,-127 45,-188 17,-131 5,-135 -69,-154 -63,-16 -133,-22 -200,-18z"/>
    <path class="fil5" d="M7115 1740l1 -99c25,3 58,14 85,19 33,7 64,7 97,12l0 194 44 0 1 -194c31,-5 61,-5 93,-11 29,-6 62,-16 89,-20l0 99c90,-33 197,-125 252,-202 8,-11 28,-36 29,-50 4,-27 -18,-40 -39,-29 -14,7 -50,37 -92,59 -37,18 -64,32 -102,48 -162,68 -341,66 -503,1 -46,-19 -108,-50 -151,-77 -15,-9 -33,-24 -46,-31 -19,-10 -41,0 -40,26 2,30 81,113 100,132 45,44 114,99 182,123z"/>
    <path class="fil5" d="M7642 777c-65,14 -100,96 -94,183 5,73 49,167 125,148 135,-33 105,-361 -31,-331z"/>
    <path class="fil5" d="M6977 777c-147,32 -109,368 32,331 59,-16 93,-103 87,-186 -5,-70 -48,-161 -119,-145z"/>
    <path class="fil6" d="M7115 1740c0,54 17,88 47,110 32,22 93,18 136,16l0 -194c-33,-5 -64,-5 -97,-12 -27,-5 -60,-16 -85,-19l-1 99z"/>
    <path class="fil6" d="M7342 1866c43,2 104,6 136,-16 31,-22 47,-56 47,-110l0 -99c-27,4 -60,14 -89,20 -32,6 -62,6 -93,11l-1 194z"/>
   </g>
   <g>
    <path class="fil0" d="M10808 1764l-223 10 -4 20c-17,103 -40,207 -63,308l-8 37 -370 -98 12 -38c7,-21 12,-42 18,-64 16,-57 33,-115 49,-172l345 -1220c20,-75 67,-243 162,-243 47,0 75,56 92,94 13,31 24,63 34,95 14,43 25,86 36,129l92 364c50,201 101,402 153,602 37,144 76,288 118,431l12 39 -369 79 -8 -34c-27,-113 -54,-226 -78,-339zm-66 -368c-3,-23 -7,-46 -11,-68l-33 -185 -45 252c28,1 56,1 83,1l6 0z"/>
   </g>
   <path class="fil1" d="M11218 2030l-299 64c-33,-138 -61,-261 -83,-368l-281 13 -8 49c-14,80 -35,182 -62,306l-300 -79c2,-5 24,-84 67,-238l345 -1220c39,-144 82,-216 129,-216 39,0 82,97 129,291l91 364c112,458 203,803 272,1034zm-436 -598c-3,-24 -9,-61 -17,-111l-52 -287c-8,-47 -12,-85 -12,-113 0,0 -6,36 -19,109l-71 400c26,2 67,2 125,2l46 0z"/>
  </g>
 </g>
</svg>
